<svg width="270" height="65" viewBox="0 0 270 65" fill="none" xmlns="http://www.w3.org/2000/svg">
<g clip-path="url(#clip0)">
<path fill-rule="evenodd" clip-rule="evenodd" d="M7.75439 2.62281C11.5176 0.912281 15.5088 0 19.386 0C23.1491 0 27.0263 0.912281 30.9035 2.62281L22.807 19.8421H16.5351L7.75439 2.62281Z" fill="#333333"/>
<path fill-rule="evenodd" clip-rule="evenodd" d="M3.07886 26.7983H17.7894V21.5527H15.6227L10.4911 12.772C5.92973 17.2193 3.07886 21.7807 3.07886 26.7983Z" fill="#333333"/>
<path fill-rule="evenodd" clip-rule="evenodd" d="M35.921 26.7983H21.2104V21.5527H23.3771L28.5087 12.772C33.0701 17.2193 35.921 21.7807 35.921 26.7983Z" fill="#333333"/>
<path fill-rule="evenodd" clip-rule="evenodd" d="M2.62281 28.5088L0 39L6.38597 34.0965H14.1404L14.2544 53.1404L19.2719 55.6491L24.2895 53.1404V34.0965H32.2719L38.6579 39L36.0351 28.5088H2.62281Z" fill="#333333"/>
<path fill-rule="evenodd" clip-rule="evenodd" d="M0.114014 41.6225L5.9298 38.0874L11.9737 40.7102V54.1663L19.0438 57.7014H19.1579H19.3859L26.5702 54.1663V40.7102L32.614 38.0874L38.4298 41.6225L35.4649 57.1313L24.1754 64.9997C20.8684 64.9997 17.6754 64.9997 14.4824 64.9997L3.19296 57.1313L0.114014 41.6225Z" fill="#333333"/>
<path d="M247.114 47.6669H231.491L210.623 22.4651V47.6669H199.904V13.1143H215.526L236.281 38.5441V13.1143H246.886V47.6669H247.114ZM156.456 47.6669H144.711L163.868 13.1143H177.439L196.14 47.7809H184.395L180.974 42.0792H159.763L156.456 47.6669ZM163.868 33.5265H177.325L170.597 21.3248L163.868 33.5265ZM134.219 47.6669H123.614V21.5529H109.018V13.2283H148.93V21.6669H134.219V47.6669ZM103.772 47.6669H93.1667V13.1143H103.772V47.6669ZM73.3246 47.6669H62.7193V21.5529H48.1228V13.2283H88.0351V21.6669H73.3246V47.6669Z" fill="#333333"/>
<path d="M51.5439 56.1055H56.6755C57.4737 56.1055 57.9299 55.9915 58.272 55.7634C58.6141 55.6494 58.6141 55.1932 58.6141 54.6231V54.1669C58.6141 53.5968 58.5001 53.2547 58.272 53.0266C57.9299 52.9125 57.4737 52.6845 56.6755 52.6845H51.5439V56.1055ZM51.5439 60.4389H50.4036V51.8862H56.3334C57.7018 51.8862 58.7281 52.0003 58.9562 52.3424C59.4123 52.6845 59.5264 53.1406 59.5264 53.9389V55.0792C59.5264 55.8775 59.4123 56.3336 58.9562 56.6757C58.5001 57.0178 57.5878 57.1318 56.3334 57.1318H51.5439V60.4389Z" fill="#333333"/>
<path d="M71.1578 52.6845H67.2807C66.7105 52.6845 66.3684 52.6845 66.0263 52.7985C65.6842 52.9125 65.5701 53.1406 65.228 53.2547C65.114 53.3687 65.114 53.5968 64.8859 53.8248C64.8859 53.9389 64.8859 54.395 64.8859 54.8511V54.9652V57.0178C64.8859 57.4739 64.8859 57.9301 64.8859 58.1582C64.8859 58.3862 65 58.6143 65.228 58.7283C65.3421 58.8424 65.6842 59.0704 66.0263 59.1845C66.3684 59.2985 66.8245 59.2985 67.2807 59.2985H71.1578C71.728 59.2985 72.0701 59.2985 72.4122 59.1845C72.7543 59.0704 72.8684 58.9564 73.2105 58.7283C73.4385 58.6143 73.4385 58.3862 73.5526 58.1582C73.5526 58.0441 73.5526 57.702 73.5526 57.2459V57.0178V54.8511C73.5526 54.395 73.5526 54.0529 73.5526 53.9389C73.5526 53.8248 73.4385 53.4827 73.2105 53.3687C73.0964 53.2547 72.7543 53.0266 72.4122 52.9125C72.0701 52.6845 71.8421 52.6845 71.1578 52.6845ZM67.8508 60.4389C66.9385 60.4389 66.2543 60.4389 65.7982 60.3248C65.3421 60.2108 65 59.9827 64.6578 59.8687C64.3157 59.5266 64.2017 59.2985 64.0877 58.9564C63.9736 58.5003 63.9736 58.0441 63.9736 57.3599V55.0792C63.9736 54.281 63.9736 53.8248 64.0877 53.3687C64.2017 52.9125 64.4298 52.5704 64.6578 52.4564C64.8859 52.3424 65.228 52.1143 65.7982 52.0003C66.2543 51.8862 66.9385 51.8862 67.8508 51.8862H70.7017C71.614 51.8862 72.2982 51.8862 72.7543 52.0003C73.2105 52.1143 73.5526 52.3424 73.8947 52.4564C74.2368 52.7985 74.3508 53.0266 74.4649 53.3687C74.5789 53.8248 74.5789 54.281 74.5789 54.9652V57.2459C74.5789 57.8161 74.5789 58.5003 74.4649 58.8424C74.3508 59.2985 74.1228 59.5266 73.8947 59.7547C73.5526 59.9827 73.3245 60.2108 72.8684 60.3248C72.2982 60.4389 71.728 60.4389 70.7017 60.4389H67.8508Z" fill="#333333"/>
<path d="M82.2194 60.4386L78.9124 51.772H80.0527L83.0176 59.5264L85.9825 51.772H87.3509L90.2018 59.5264L93.1667 51.772H94.3071L91.0001 60.4386H89.4036L86.5527 52.9123L83.8159 60.4386H82.2194Z" fill="#333333"/>
<path d="M98.6404 60.4386V51.772H107.079V52.9123H99.5527V55.5351H106.737V56.4474H99.5527V59.2983H107.079V60.4386H98.6404Z" fill="#333333"/>
<path d="M112.439 60.4389H111.298V51.8862H117.57C118.939 51.8862 119.965 52.0003 120.193 52.3424C120.649 52.6845 120.763 53.1406 120.763 53.9389V55.0792C120.763 55.5354 120.649 55.9915 120.421 56.2196C120.307 56.5617 119.851 56.6757 119.167 56.7897C119.623 56.7897 119.965 56.9038 120.307 57.2459C120.649 57.588 120.649 57.8161 120.649 58.5003V60.4389H119.509V58.7283C119.509 58.1582 119.395 57.8161 119.167 57.588C118.825 57.4739 118.369 57.2459 117.456 57.2459H112.325V60.4389H112.439ZM117.912 52.6845H112.439V55.8775H117.912C118.711 55.8775 119.167 55.7634 119.509 55.5354C119.851 55.4213 119.851 54.9652 119.851 54.395V53.9389C119.851 53.3687 119.737 53.0266 119.509 52.7985C119.167 52.7985 118.711 52.6845 117.912 52.6845Z" fill="#333333"/>
<path d="M137.412 57.702H138.553V57.8161C138.553 57.9301 138.553 58.1582 138.553 58.1582C138.553 58.6143 138.667 59.0704 139.009 59.1845C139.351 59.2985 140.149 59.5266 141.061 59.5266H143.228C144.368 59.5266 145.053 59.4125 145.623 59.1845C145.965 59.0704 146.079 58.6143 146.079 57.9301C146.079 57.4739 145.965 57.0178 145.737 56.7897C145.395 56.6757 144.939 56.4476 144.14 56.4476H140.605C139.465 56.4476 138.553 56.3336 138.211 55.9915C137.754 55.6494 137.64 55.0792 137.64 54.1669C137.64 53.2547 137.983 52.5704 138.439 52.3424C138.895 52.0003 140.035 51.8862 141.404 51.8862H143.456C144.597 51.8862 145.281 52.0003 145.623 52.0003C146.079 52.1143 146.421 52.2283 146.649 52.4564C146.763 52.5704 146.991 52.9125 147.105 53.1406C147.219 53.4827 147.219 53.7108 147.219 54.281V54.6231H146.079V54.1669C146.079 53.5968 145.965 53.2547 145.623 53.0266C145.281 52.9125 144.825 52.6845 143.912 52.6845H140.947C140.035 52.6845 139.351 52.7985 139.123 53.0266C138.895 53.2547 138.667 53.5968 138.667 54.1669C138.667 54.7371 138.781 55.0792 139.123 55.3073C139.465 55.5354 140.035 55.6494 140.947 55.6494H144.026C144.597 55.6494 145.281 55.6494 145.623 55.7634C145.965 55.7634 146.193 55.8775 146.421 56.1055C146.763 56.2196 146.877 56.5617 146.991 56.9038C147.105 57.0178 147.105 57.4739 147.105 58.1582C147.105 59.0704 146.763 59.4125 146.307 59.8687C145.851 60.2108 144.939 60.4389 143.456 60.4389H140.491C139.351 60.4389 138.553 60.3248 138.097 59.9827C137.64 59.6406 137.412 59.4125 137.412 58.6143C137.412 58.2722 137.412 57.9301 137.412 57.702Z" fill="#333333"/>
<path d="M160.105 52.6845H156.228C155.658 52.6845 155.316 52.6845 154.974 52.7985C154.632 52.9125 154.404 52.9125 154.176 53.2547C154.062 53.3687 153.947 53.4827 153.833 53.8248C153.833 53.9389 153.833 54.395 153.833 54.8511V54.9652V57.0178C153.833 57.4739 153.833 57.9301 153.833 58.1582C153.833 58.3862 153.947 58.6143 154.176 58.7283C154.29 58.8424 154.632 59.0704 154.974 59.1845C155.316 59.2985 155.772 59.2985 156.228 59.2985H160.105C160.676 59.2985 161.018 59.2985 161.36 59.1845C161.702 59.0704 161.816 58.9564 162.158 58.7283C162.386 58.6143 162.5 58.3862 162.5 58.1582C162.5 58.0441 162.5 57.702 162.5 57.2459V57.0178V54.8511C162.5 54.395 162.5 54.0529 162.5 53.9389C162.5 53.8248 162.386 53.4827 162.158 53.3687C162.044 53.2547 161.702 53.0266 161.36 52.9125C161.132 52.6845 160.79 52.6845 160.105 52.6845ZM156.684 60.4389C155.772 60.4389 155.088 60.4389 154.632 60.3248C154.176 60.2108 153.833 59.9827 153.491 59.8687C153.149 59.5266 153.035 59.2985 152.921 58.9564C152.807 58.5003 152.807 58.0441 152.807 57.3599V55.0792C152.807 54.281 152.807 53.8248 152.921 53.3687C153.035 52.9125 153.263 52.6845 153.491 52.4564C153.719 52.2283 154.062 52.1143 154.632 52.0003C155.088 51.8862 155.772 51.8862 156.684 51.8862H159.535C160.447 51.8862 161.132 51.8862 161.588 52.0003C162.044 52.1143 162.386 52.3424 162.728 52.4564C163.07 52.7985 163.184 53.0266 163.298 53.3687C163.412 53.8248 163.412 54.281 163.412 54.9652V57.2459C163.412 57.8161 163.412 58.3862 163.298 58.8424C163.184 59.2985 162.956 59.5266 162.728 59.7547C162.386 59.9827 162.158 60.2108 161.588 60.3248C161.132 60.4389 160.447 60.4389 159.535 60.4389H156.684Z" fill="#333333"/>
<path d="M169.228 60.4386V51.772H170.369V59.2983H177.097V60.4386H169.228Z" fill="#333333"/>
<path d="M186.333 60.4386C185.535 60.4386 184.965 60.4386 184.509 60.3246C184.053 60.2106 183.711 59.9825 183.597 59.8685C183.254 59.5264 183.14 59.2983 183.026 58.9562C182.912 58.5 182.912 58.0439 182.912 57.3597V51.772H184.053V57.3597C184.053 57.8158 184.053 58.1579 184.053 58.272C184.053 58.386 184.167 58.6141 184.167 58.7281C184.281 58.8421 184.509 59.0702 184.737 59.1843C185.079 59.2983 185.307 59.2983 185.877 59.2983H189.412C189.869 59.2983 190.325 59.2983 190.553 59.1843C190.895 59.0702 191.009 58.8421 191.123 58.7281C191.237 58.6141 191.237 58.386 191.237 58.272C191.237 58.1579 191.237 57.8158 191.237 57.3597V57.0176V51.772H192.377V57.2457C192.377 57.8158 192.263 58.5 192.263 58.8421C192.149 59.2983 191.921 59.6404 191.693 59.8685C191.465 60.0965 191.123 60.2106 190.781 60.3246C190.325 60.4386 189.64 60.4386 188.956 60.4386H186.333Z" fill="#333333"/>
<path d="M203.324 60.4386H202.184V52.9123H197.965V51.772H207.544V52.9123H203.324V60.4386Z" fill="#333333"/>
<path d="M214.386 51.772H213.246V60.3246H214.386V51.772Z" fill="#333333"/>
<path d="M227.5 52.6845H223.509C222.939 52.6845 222.597 52.6845 222.255 52.7985C221.912 52.9125 221.798 53.1406 221.456 53.2547C221.342 53.3687 221.342 53.5968 221.114 53.8248C221.114 53.9389 221.114 54.395 221.114 54.8511V54.9652V57.0178C221.114 57.4739 221.114 57.9301 221.114 58.1582C221.114 58.3862 221.228 58.6143 221.456 58.7283C221.57 58.8424 221.912 59.0704 222.255 59.1845C222.597 59.2985 223.053 59.2985 223.509 59.2985H227.386C227.956 59.2985 228.298 59.2985 228.64 59.1845C228.983 59.0704 229.097 59.0704 229.325 58.8424C229.553 58.7283 229.667 58.5003 229.667 58.1582C229.667 57.9301 229.667 57.702 229.667 57.2459V57.0178V54.8511C229.667 54.395 229.667 54.0529 229.667 53.9389C229.667 53.8248 229.553 53.4827 229.325 53.3687C229.211 53.2547 228.869 53.0266 228.526 52.9125C228.412 52.6845 227.956 52.6845 227.5 52.6845ZM224.079 60.4389C223.167 60.4389 222.483 60.4389 222.026 60.3248C221.57 60.2108 221.228 59.9827 220.886 59.8687C220.544 59.5266 220.43 59.2985 220.316 58.9564C220.202 58.5003 220.202 58.0441 220.202 57.3599V55.0792C220.202 54.281 220.202 53.8248 220.316 53.3687C220.43 52.9125 220.658 52.5704 220.886 52.4564C221.228 52.3424 221.456 52.1143 222.026 52.0003C222.483 51.8862 223.167 51.8862 224.079 51.8862H226.93C227.842 51.8862 228.526 51.8862 228.983 52.0003C229.439 52.1143 229.781 52.3424 230.123 52.4564C230.465 52.7985 230.579 53.0266 230.693 53.3687C230.807 53.8248 230.807 54.281 230.807 54.9652V57.2459C230.807 57.8161 230.807 58.5003 230.693 58.8424C230.579 59.2985 230.237 59.6406 230.009 59.8687C229.781 60.0968 229.439 60.2108 228.869 60.3248C228.412 60.4389 227.728 60.4389 226.816 60.4389H224.079Z" fill="#333333"/>
<path d="M237.535 60.4386H236.395V51.772H238.105L245.746 59.4123V51.772H246.886V60.4386H245.29L237.535 52.6843V60.4386Z" fill="#333333"/>
<path d="M257.833 2.50856H254.982V8.55242H252.702V2.50856H249.851V1.14014H257.833V2.50856Z" fill="#333333"/>
<path d="M261.824 1.14014L263.991 6.27172L266.158 1.14014H269.237V8.55242H266.956V6.72786L267.184 3.19277L264.903 8.43838H263.421L261.14 3.19277L261.368 6.72786V8.43838H259.088V1.14014H261.824Z" fill="#333333"/>
</g>
<defs>
<clipPath id="clip0">
<rect width="269.123" height="65" fill="white"/>
</clipPath>
</defs>
</svg>
