<svg width="397" height="260" viewBox="0 0 397 260" fill="none" xmlns="http://www.w3.org/2000/svg">
<path d="M17.192 205V176.986H22.652V200.296H33.74V176.986H39.2V200.296H42.56V211.3H37.52V205H17.192Z" fill="#61A60E"/>
<path d="M58.582 199.162L63.286 199.918C63.09 200.422 62.824 200.926 62.488 201.43C62.18 201.906 61.69 202.508 61.018 203.236C60.346 203.936 59.436 204.51 58.288 204.958C57.14 205.378 55.824 205.588 54.34 205.588C51.484 205.588 49.16 204.734 47.368 203.026C45.464 201.234 44.512 198.868 44.512 195.928C44.512 193.016 45.436 190.636 47.284 188.788C49.02 187.08 51.302 186.226 54.13 186.226C57.21 186.226 59.576 187.22 61.228 189.208C62.684 190.944 63.412 193.324 63.412 196.348V196.768H49.804C49.804 198 50.098 199.022 50.686 199.834C51.526 200.982 52.744 201.556 54.34 201.556C56.244 201.556 57.658 200.758 58.582 199.162ZM49.972 193.492H58.582C58.386 192.316 57.868 191.42 57.028 190.804C56.216 190.16 55.292 189.838 54.256 189.838C53.248 189.838 52.324 190.16 51.484 190.804C50.672 191.448 50.168 192.344 49.972 193.492Z" fill="#61A60E"/>
<path d="M58.582 199.162L58.6296 198.866L58.4258 198.833L58.3224 199.012L58.582 199.162ZM63.286 199.918L63.5656 200.027L63.7002 199.681L63.3336 199.622L63.286 199.918ZM62.488 201.43L62.2384 201.264L62.2361 201.267L62.488 201.43ZM61.018 203.236L61.2345 203.444L61.2384 203.439L61.018 203.236ZM58.288 204.958L58.3911 205.24L58.3971 205.237L58.288 204.958ZM47.368 203.026L47.575 202.809L47.5736 202.808L47.368 203.026ZM47.284 188.788L47.0736 188.574L47.0719 188.576L47.284 188.788ZM61.228 189.208L60.9973 189.4L60.9981 189.401L61.228 189.208ZM63.412 196.768V197.068H63.712V196.768H63.412ZM49.804 196.768V196.468H49.504V196.768H49.804ZM50.686 199.834L50.443 200.01L50.4439 200.011L50.686 199.834ZM49.972 193.492L49.6763 193.442L49.6164 193.792H49.972V193.492ZM58.582 193.492V193.792H58.9361L58.8779 193.443L58.582 193.492ZM57.028 190.804L56.8414 191.039L56.8506 191.046L57.028 190.804ZM51.484 190.804L51.3014 190.566L51.2976 190.569L51.484 190.804ZM58.5344 199.458L63.2384 200.214L63.3336 199.622L58.6296 198.866L58.5344 199.458ZM63.0064 199.809C62.8192 200.291 62.5637 200.776 62.2384 201.264L62.7376 201.596C63.0843 201.076 63.3608 200.553 63.5656 200.027L63.0064 199.809ZM62.2361 201.267C61.9418 201.722 61.4652 202.309 60.7976 203.033L61.2384 203.439C61.9148 202.707 62.4182 202.09 62.7399 201.593L62.2361 201.267ZM60.8016 203.028C60.1667 203.69 59.297 204.242 58.1789 204.679L58.3971 205.237C59.575 204.778 60.5253 204.182 61.2344 203.444L60.8016 203.028ZM58.1849 204.676C57.0762 205.082 55.7961 205.288 54.34 205.288V205.888C55.8519 205.888 57.2038 205.674 58.3911 205.24L58.1849 204.676ZM54.34 205.288C51.5483 205.288 49.3026 204.455 47.575 202.809L47.161 203.243C49.0174 205.013 51.4197 205.888 54.34 205.888V205.288ZM47.5736 202.808C45.7376 201.08 44.812 198.797 44.812 195.928H44.212C44.212 198.939 45.1904 201.388 47.1624 203.244L47.5736 202.808ZM44.812 195.928C44.812 193.086 45.7111 190.785 47.4961 189L47.0719 188.576C45.1609 190.487 44.212 192.946 44.212 195.928H44.812ZM47.4944 189.002C49.1652 187.358 51.367 186.526 54.13 186.526V185.926C51.237 185.926 48.8748 186.802 47.0736 188.574L47.4944 189.002ZM54.13 186.526C57.1397 186.526 59.4133 187.494 60.9973 189.4L61.4587 189.016C59.7387 186.946 57.2803 185.926 54.13 185.926V186.526ZM60.9981 189.401C62.3956 191.067 63.112 193.371 63.112 196.348H63.712C63.712 193.277 62.9724 190.821 61.4579 189.015L60.9981 189.401ZM63.112 196.348V196.768H63.712V196.348H63.112ZM63.412 196.468H49.804V197.068H63.412V196.468ZM49.504 196.768C49.504 198.048 49.8102 199.136 50.443 200.01L50.929 199.658C50.3858 198.908 50.104 197.952 50.104 196.768H49.504ZM50.4439 200.011C51.3479 201.247 52.6618 201.856 54.34 201.856V201.256C52.8262 201.256 51.7041 200.717 50.9281 199.657L50.4439 200.011ZM54.34 201.856C56.3468 201.856 57.8619 201.005 58.8416 199.312L58.3224 199.012C57.4541 200.511 56.1412 201.256 54.34 201.256V201.856ZM49.972 193.792H58.582V193.192H49.972V193.792ZM58.8779 193.443C58.6711 192.202 58.1177 191.231 57.2054 190.562L56.8506 191.046C57.6183 191.609 58.1009 192.43 58.2861 193.541L58.8779 193.443ZM57.2144 190.569C56.3494 189.883 55.3597 189.538 54.256 189.538V190.138C55.2243 190.138 56.0826 190.437 56.8416 191.039L57.2144 190.569ZM54.256 189.538C53.1785 189.538 52.191 189.884 51.3015 190.566L51.6665 191.042C52.457 190.436 53.3175 190.138 54.256 190.138V189.538ZM51.2976 190.569C50.4204 191.265 49.8831 192.23 49.6763 193.442L50.2677 193.542C50.4529 192.458 50.9236 191.631 51.6704 191.039L51.2976 190.569Z" fill="#61A60E"/>
<path d="M67.436 205V186.814H72.56V193.24H79.7V186.814H84.824V205H79.7V197.608H72.56V205H67.436Z" fill="#61A60E"/>
<path d="M103.456 191.182H98.416V205H93.292V191.182H88.252V186.814H103.456V191.182Z" fill="#61A60E"/>
<path d="M110.56 202.648V214.744H105.436V186.814H110.56V189.166C111.96 187.206 113.934 186.226 116.482 186.226C119.142 186.226 121.298 187.136 122.95 188.956C124.602 190.776 125.428 193.086 125.428 195.886C125.428 198.686 124.574 201.01 122.866 202.858C121.186 204.678 119.016 205.588 116.356 205.588C113.92 205.588 111.988 204.608 110.56 202.648ZM118.708 192.232C117.756 191.252 116.552 190.762 115.096 190.762C113.64 190.762 112.436 191.252 111.484 192.232C110.532 193.212 110.056 194.43 110.056 195.886C110.056 197.342 110.532 198.574 111.484 199.582C112.436 200.562 113.64 201.052 115.096 201.052C116.552 201.052 117.756 200.562 118.708 199.582C119.66 198.574 120.136 197.342 120.136 195.886C120.136 194.43 119.66 193.212 118.708 192.232Z" fill="#61A60E"/>
<path d="M141.578 188.788C143.426 187.08 145.876 186.226 148.928 186.226C151.98 186.226 154.43 187.08 156.278 188.788C158.322 190.636 159.344 193.016 159.344 195.928C159.344 198.812 158.322 201.178 156.278 203.026C154.43 204.734 151.98 205.588 148.928 205.588C145.876 205.588 143.426 204.734 141.578 203.026C139.534 201.178 138.512 198.812 138.512 195.928C138.512 193.016 139.534 190.636 141.578 188.788ZM145.274 199.54C146.254 200.548 147.472 201.052 148.928 201.052C150.384 201.052 151.602 200.548 152.582 199.54C153.562 198.532 154.052 197.328 154.052 195.928C154.052 194.5 153.562 193.282 152.582 192.274C151.602 191.266 150.384 190.762 148.928 190.762C147.472 190.762 146.254 191.266 145.274 192.274C144.294 193.282 143.804 194.5 143.804 195.928C143.804 197.328 144.294 198.532 145.274 199.54Z" fill="#61A60E"/>
<path d="M168.56 202.648V214.744H163.436V186.814H168.56V189.166C169.96 187.206 171.934 186.226 174.482 186.226C177.142 186.226 179.298 187.136 180.95 188.956C182.602 190.776 183.428 193.086 183.428 195.886C183.428 198.686 182.574 201.01 180.866 202.858C179.186 204.678 177.016 205.588 174.356 205.588C171.92 205.588 169.988 204.608 168.56 202.648ZM176.708 192.232C175.756 191.252 174.552 190.762 173.096 190.762C171.64 190.762 170.436 191.252 169.484 192.232C168.532 193.212 168.056 194.43 168.056 195.886C168.056 197.342 168.532 198.574 169.484 199.582C170.436 200.562 171.64 201.052 173.096 201.052C174.552 201.052 175.756 200.562 176.708 199.582C177.66 198.574 178.136 197.342 178.136 195.886C178.136 194.43 177.66 193.212 176.708 192.232Z" fill="#61A60E"/>
<path d="M187.436 205V186.814H199.028V191.182H192.56V205H187.436Z" fill="#61A60E"/>
<path d="M215.38 189.166V186.814H220.504V205H215.38V202.648C214.008 204.608 212.146 205.588 209.794 205.588C207.05 205.588 204.81 204.65 203.074 202.774C201.366 200.898 200.512 198.602 200.512 195.886C200.512 193.142 201.352 190.846 203.032 188.998C204.712 187.15 206.882 186.226 209.542 186.226C212.174 186.226 214.12 187.206 215.38 189.166ZM214.456 192.232C213.504 191.252 212.3 190.762 210.844 190.762C209.388 190.762 208.184 191.252 207.232 192.232C206.28 193.212 205.804 194.43 205.804 195.886C205.804 197.342 206.28 198.574 207.232 199.582C208.184 200.562 209.388 201.052 210.844 201.052C212.3 201.052 213.504 200.562 214.456 199.582C215.408 198.574 215.884 197.342 215.884 195.886C215.884 194.43 215.408 193.212 214.456 192.232Z" fill="#61A60E"/>
<path d="M225.436 205V186.814H230.56V193.24H237.7V186.814H242.824V205H237.7V197.608H230.56V205H225.436Z" fill="#61A60E"/>
<path d="M248.436 186.814H253.56V198.028L261.96 186.814H267.084V205H261.96V193.786L253.56 205H248.436V186.814Z" fill="#61A60E"/>
<path d="M273.284 191.686L270.932 188.494C272.836 186.982 275.132 186.226 277.82 186.226C279.864 186.226 281.474 186.632 282.65 187.444C284.022 188.368 284.708 189.656 284.708 191.308C284.708 192.988 283.868 194.29 282.188 195.214C283.084 195.438 283.882 195.844 284.582 196.432C285.506 197.272 285.968 198.392 285.968 199.792C285.968 201.556 285.268 202.956 283.868 203.992C282.468 205.056 280.48 205.588 277.904 205.588C274.656 205.588 272.052 204.58 270.092 202.564L272.612 199.456C273.984 200.744 275.608 201.388 277.484 201.388C278.66 201.388 279.486 201.178 279.962 200.758C280.438 200.338 280.676 199.862 280.676 199.33C280.676 198.658 280.354 198.154 279.71 197.818C279.262 197.594 278.534 197.482 277.526 197.482H275.384V193.786H277.442C278.366 193.786 279.038 193.646 279.458 193.366C279.878 193.086 280.088 192.666 280.088 192.106C280.088 190.874 279.164 190.258 277.316 190.258C275.748 190.258 274.404 190.734 273.284 191.686Z" fill="#61A60E"/>
<path d="M304.38 189.166V186.814H309.504V205H304.38V202.648C303.008 204.608 301.146 205.588 298.794 205.588C296.05 205.588 293.81 204.65 292.074 202.774C290.366 200.898 289.512 198.602 289.512 195.886C289.512 193.142 290.352 190.846 292.032 188.998C293.712 187.15 295.882 186.226 298.542 186.226C301.174 186.226 303.12 187.206 304.38 189.166ZM303.456 192.232C302.504 191.252 301.3 190.762 299.844 190.762C298.388 190.762 297.184 191.252 296.232 192.232C295.28 193.212 294.804 194.43 294.804 195.886C294.804 197.342 295.28 198.574 296.232 199.582C297.184 200.562 298.388 201.052 299.844 201.052C301.3 201.052 302.504 200.562 303.456 199.582C304.408 198.574 304.884 197.342 304.884 195.886C304.884 194.43 304.408 193.212 303.456 192.232Z" fill="#61A60E"/>
<path d="M314.436 205V186.814H319.56V200.632H326.364V186.814H331.488V200.632H334.428V210.292H329.808V205H314.436Z" fill="#61A60E"/>
<path d="M336.436 186.814H341.56V198.028L349.96 186.814H355.084V205H349.96V193.786L341.56 205H336.436V186.814Z" fill="#61A60E"/>
<path d="M360.436 186.814H365.56V198.028L373.96 186.814H379.084V205H373.96V193.786L365.56 205H360.436V186.814Z" fill="#61A60E"/>
<path d="M4.116 227.814H19.236V241.632H21.924V251.292H17.304V246H4.788V251.292H0.168V241.632C1.596 241.548 2.674 240.778 3.402 239.322C3.878 238.286 4.116 236.732 4.116 234.66V227.814ZM14.112 241.632V232.182H8.736V236.214C8.736 238.678 8.064 240.484 6.72 241.632H14.112Z" fill="#61A60E"/>
<path d="M26.578 229.788C28.426 228.08 30.876 227.226 33.928 227.226C36.98 227.226 39.43 228.08 41.278 229.788C43.322 231.636 44.344 234.016 44.344 236.928C44.344 239.812 43.322 242.178 41.278 244.026C39.43 245.734 36.98 246.588 33.928 246.588C30.876 246.588 28.426 245.734 26.578 244.026C24.534 242.178 23.512 239.812 23.512 236.928C23.512 234.016 24.534 231.636 26.578 229.788ZM30.274 240.54C31.254 241.548 32.472 242.052 33.928 242.052C35.384 242.052 36.602 241.548 37.582 240.54C38.562 239.532 39.052 238.328 39.052 236.928C39.052 235.5 38.562 234.282 37.582 233.274C36.602 232.266 35.384 231.762 33.928 231.762C32.472 231.762 31.254 232.266 30.274 233.274C29.294 234.282 28.804 235.5 28.804 236.928C28.804 238.328 29.294 239.532 30.274 240.54Z" fill="#61A60E"/>
<path d="M53.56 243.648V255.744H48.436V227.814H53.56V230.166C54.96 228.206 56.934 227.226 59.482 227.226C62.142 227.226 64.298 228.136 65.95 229.956C67.602 231.776 68.428 234.086 68.428 236.886C68.428 239.686 67.574 242.01 65.866 243.858C64.186 245.678 62.016 246.588 59.356 246.588C56.92 246.588 54.988 245.608 53.56 243.648ZM61.708 233.232C60.756 232.252 59.552 231.762 58.096 231.762C56.64 231.762 55.436 232.252 54.484 233.232C53.532 234.212 53.056 235.43 53.056 236.886C53.056 238.342 53.532 239.574 54.484 240.582C55.436 241.562 56.64 242.052 58.096 242.052C59.552 242.052 60.756 241.562 61.708 240.582C62.66 239.574 63.136 238.342 63.136 236.886C63.136 235.43 62.66 234.212 61.708 233.232Z" fill="#61A60E"/>
<path d="M74.578 229.788C76.426 228.08 78.876 227.226 81.928 227.226C84.98 227.226 87.43 228.08 89.278 229.788C91.322 231.636 92.344 234.016 92.344 236.928C92.344 239.812 91.322 242.178 89.278 244.026C87.43 245.734 84.98 246.588 81.928 246.588C78.876 246.588 76.426 245.734 74.578 244.026C72.534 242.178 71.512 239.812 71.512 236.928C71.512 234.016 72.534 231.636 74.578 229.788ZM78.274 240.54C79.254 241.548 80.472 242.052 81.928 242.052C83.384 242.052 84.602 241.548 85.582 240.54C86.562 239.532 87.052 238.328 87.052 236.928C87.052 235.5 86.562 234.282 85.582 233.274C84.602 232.266 83.384 231.762 81.928 231.762C80.472 231.762 79.254 232.266 78.274 233.274C77.294 234.282 76.804 235.5 76.804 236.928C76.804 238.328 77.294 239.532 78.274 240.54Z" fill="#61A60E"/>
<path d="M105.718 227.814H110.338V234.87L115.798 227.814H121.762L114.832 236.088L122.14 246H115.924L111.01 238.86L110.338 239.616V246H105.718V239.616L105.046 238.86L100.132 246H93.916L101.224 236.088L94.294 227.814H100.258L105.718 234.87V227.814Z" fill="#61A60E"/>
<path d="M124.436 246V227.814H129.56V234.24H136.7V227.814H141.824V246H136.7V238.608H129.56V246H124.436Z" fill="#61A60E"/>
<path d="M148.578 229.788C150.426 228.08 152.876 227.226 155.928 227.226C158.98 227.226 161.43 228.08 163.278 229.788C165.322 231.636 166.344 234.016 166.344 236.928C166.344 239.812 165.322 242.178 163.278 244.026C161.43 245.734 158.98 246.588 155.928 246.588C152.876 246.588 150.426 245.734 148.578 244.026C146.534 242.178 145.512 239.812 145.512 236.928C145.512 234.016 146.534 231.636 148.578 229.788ZM152.274 240.54C153.254 241.548 154.472 242.052 155.928 242.052C157.384 242.052 158.602 241.548 159.582 240.54C160.562 239.532 161.052 238.328 161.052 236.928C161.052 235.5 160.562 234.282 159.582 233.274C158.602 232.266 157.384 231.762 155.928 231.762C154.472 231.762 153.254 232.266 152.274 233.274C151.294 234.282 150.804 235.5 150.804 236.928C150.804 238.328 151.294 239.532 152.274 240.54Z" fill="#61A60E"/>
<path d="M170.436 246V227.814H182.028V232.182H175.56V246H170.436Z" fill="#61A60E"/>
<path d="M186.578 229.788C188.426 228.08 190.876 227.226 193.928 227.226C196.98 227.226 199.43 228.08 201.278 229.788C203.322 231.636 204.344 234.016 204.344 236.928C204.344 239.812 203.322 242.178 201.278 244.026C199.43 245.734 196.98 246.588 193.928 246.588C190.876 246.588 188.426 245.734 186.578 244.026C184.534 242.178 183.512 239.812 183.512 236.928C183.512 234.016 184.534 231.636 186.578 229.788ZM190.274 240.54C191.254 241.548 192.472 242.052 193.928 242.052C195.384 242.052 196.602 241.548 197.582 240.54C198.562 239.532 199.052 238.328 199.052 236.928C199.052 235.5 198.562 234.282 197.582 233.274C196.602 232.266 195.384 231.762 193.928 231.762C192.472 231.762 191.254 232.266 190.274 233.274C189.294 234.282 188.804 235.5 188.804 236.928C188.804 238.328 189.294 239.532 190.274 240.54Z" fill="#61A60E"/>
<path d="M220.116 227.814H235.236V241.632H237.924V251.292H233.304V246H220.788V251.292H216.168V241.632C217.596 241.548 218.674 240.778 219.402 239.322C219.878 238.286 220.116 236.732 220.116 234.66V227.814ZM230.112 241.632V232.182H224.736V236.214C224.736 238.678 224.064 240.484 222.72 241.632H230.112Z" fill="#61A60E"/>
<path d="M240.436 227.814H248.458C250.39 227.814 251.832 228.178 252.784 228.906C253.96 229.802 254.548 230.992 254.548 232.476C254.548 233.26 254.324 234.002 253.876 234.702C253.456 235.374 252.84 235.878 252.028 236.214C252.924 236.382 253.722 236.774 254.422 237.39C255.346 238.23 255.808 239.364 255.808 240.792C255.808 242.5 255.164 243.844 253.876 244.824C252.812 245.608 251.454 246 249.802 246H240.436V227.814ZM245.56 235.038H247.912C248.444 235.038 248.892 234.926 249.256 234.702C249.704 234.422 249.928 234.002 249.928 233.442C249.928 232.854 249.732 232.42 249.34 232.14C249.06 231.944 248.556 231.846 247.828 231.846H245.56V235.038ZM245.56 241.968H247.954C248.822 241.968 249.452 241.814 249.844 241.506C250.292 241.17 250.516 240.68 250.516 240.036C250.516 239.448 250.292 239.014 249.844 238.734C249.452 238.454 248.864 238.314 248.08 238.314H245.56V241.968Z" fill="#61A60E"/>
<path d="M259.436 227.814H264.56V239.028L272.96 227.814H278.084V246H272.96V234.786L264.56 246H259.436V227.814Z" fill="#61A60E"/>
<path d="M292.718 227.814H297.338V234.87L302.798 227.814H308.762L301.832 236.088L309.14 246H302.924L298.01 238.86L297.338 239.616V246H292.718V239.616L292.046 238.86L287.132 246H280.916L288.224 236.088L281.294 227.814H287.258L292.718 234.87V227.814Z" fill="#61A60E"/>
<path d="M324.582 240.162L329.286 240.918C329.09 241.422 328.824 241.926 328.488 242.43C328.18 242.906 327.69 243.508 327.018 244.236C326.346 244.936 325.436 245.51 324.288 245.958C323.14 246.378 321.824 246.588 320.34 246.588C317.484 246.588 315.16 245.734 313.368 244.026C311.464 242.234 310.512 239.868 310.512 236.928C310.512 234.016 311.436 231.636 313.284 229.788C315.02 228.08 317.302 227.226 320.13 227.226C323.21 227.226 325.576 228.22 327.228 230.208C328.684 231.944 329.412 234.324 329.412 237.348V237.768H315.804C315.804 239 316.098 240.022 316.686 240.834C317.526 241.982 318.744 242.556 320.34 242.556C322.244 242.556 323.658 241.758 324.582 240.162ZM315.972 234.492H324.582C324.386 233.316 323.868 232.42 323.028 231.804C322.216 231.16 321.292 230.838 320.256 230.838C319.248 230.838 318.324 231.16 317.484 231.804C316.672 232.448 316.168 233.344 315.972 234.492Z" fill="#61A60E"/>
<path d="M333.436 246V227.814H338.56V234.24H345.7V227.814H350.824V246H345.7V238.608H338.56V246H333.436Z" fill="#61A60E"/>
<path d="M355.436 227.814H360.56V239.028L368.96 227.814H374.084V246H368.96V234.786L360.56 246H355.436V227.814Z" fill="#61A60E"/>
<path d="M377.84 246L383.216 239.196C382.04 239.028 381.06 238.552 380.276 237.768C379.324 236.816 378.848 235.528 378.848 233.904C378.848 232.028 379.576 230.502 381.032 229.326C382.32 228.318 384.196 227.814 386.66 227.814H393.884V246H388.76V239.616H388.172L383.72 246H377.84ZM388.76 235.92V231.846H386.534C385.75 231.846 385.176 232.014 384.812 232.35C384.364 232.77 384.14 233.302 384.14 233.946C384.14 234.618 384.364 235.122 384.812 235.458C385.204 235.766 385.778 235.92 386.534 235.92H388.76Z" fill="#61A60E"/>
<path d="M263.102 68.3491C263.102 30.5912 232.644 0 195.051 0C157.458 0 127 30.5912 127 68.3491C127 87.1949 134.631 104.315 146.854 116.592C147.911 117.653 149.265 118.251 150.818 118.251C153.857 118.251 156.335 115.762 156.335 112.71C156.335 111.15 155.674 109.724 154.65 108.695C144.409 98.4095 138.033 84.1092 138.033 68.3491C138.033 36.7957 163.602 11.115 195.018 11.115C226.434 11.115 252.002 36.7957 252.002 68.3491C252.002 84.1424 245.593 98.4427 235.287 108.795L187.156 157.137L194.985 165L243.149 116.658C255.504 104.282 263.102 87.2281 263.102 68.3491Z" fill="#61A60E"/>
<path d="M189.224 53.4131H198.08L166.618 84.875H157.296L189.224 53.4131Z" fill="#61A60E"/>
<path d="M206.004 53.4131H214.86L183.398 84.875H174.076L206.004 53.4131Z" fill="#61A60E"/>
<path d="M224.415 53.4131H233.271L201.809 84.875H192.487L224.415 53.4131Z" fill="#61A60E"/>
</svg>
