<svg width="134" height="74" viewBox="0 0 134 74" fill="none" xmlns="http://www.w3.org/2000/svg">
<path d="M40.8535 29.2918V10.021" stroke="#FF3E80" stroke-width="15.4167"/>
<path d="M93.2705 29.2918V10.021" stroke="#FF3E80" stroke-width="15.4167"/>
<path fill-rule="evenodd" clip-rule="evenodd" d="M31.6042 0C14.1497 0 0 14.1497 0 31.6042V69.375C0 71.9293 2.07069 74 4.625 74H10.7917C13.346 74 15.4167 71.9293 15.4167 69.375V31.6042C15.4167 22.6641 22.6641 15.4167 31.6042 15.4167C40.5443 15.4167 47.7917 22.6641 47.7917 31.6042V69.375C47.7917 71.9293 49.8624 74 52.4167 74H58.5833C61.1376 74 63.2083 71.9293 63.2083 69.375V31.6042C63.2083 14.1497 49.0587 0 31.6042 0Z" fill="#8759F2"/>
<path d="M101.75 0C84.2952 0 70.1455 14.1497 70.1455 31.6042V69.375C70.1455 71.9293 72.2162 74 74.7705 74H80.9372C83.4915 74 85.5622 71.9293 85.5622 69.375V31.6042C85.5622 22.6641 92.8096 15.4167 101.75 15.4167C110.69 15.4167 117.937 22.6641 117.937 31.6042V69.375C117.937 71.9293 120.008 74 122.562 74H128.729C131.283 74 133.354 71.9293 133.354 69.375V31.6042C133.354 14.1497 119.204 0 101.75 0Z" fill="#FFC300"/>
<path d="M40.8538 29.2915L40.8538 30.8332C40.8538 45.3076 52.5877 57.0415 67.0622 57.0415V57.0415C81.5366 57.0415 93.2705 45.3076 93.2705 30.8332L93.2705 29.2915" stroke="#FF3E80" stroke-width="15.4167"/>
</svg>
