<svg width="35" height="35" viewBox="0 0 35 35" fill="none" xmlns="http://www.w3.org/2000/svg">
  <g clip-path="url(#clip0_3_17)">
  <path d="M22.3574 20.4097H21.2275L20.8271 20.0321C22.2287 18.4379 23.0725 16.3683 23.0725 14.1168C23.0725 9.09656 18.9106 5.02719 13.7763 5.02719C8.64188 5.02719 4.48003 9.09656 4.48003 14.1168C4.48003 19.1371 8.64188 23.2065 13.7763 23.2065C16.0789 23.2065 18.1955 22.3814 19.826 21.011L20.2121 21.4025V22.5073L27.3631 29.4853L29.494 27.4017L22.3574 20.4097V20.4097ZM13.7763 20.4097C10.2151 20.4097 7.3404 17.5989 7.3404 14.1168C7.3404 10.6348 10.2151 7.82401 13.7763 7.82401C17.3374 7.82401 20.2121 10.6348 20.2121 14.1168C20.2121 17.5989 17.3374 20.4097 13.7763 20.4097Z" fill="#6E798C"/>
  </g>
  <defs>
  <clipPath id="clip0_3_17">
  <rect width="34.3245" height="33.5618" fill="white" transform="translate(0.189453 0.83197)"/>
  </clipPath>
  </defs>
</svg>
